# xmcd CD database file
#
# Track frame offsets:
#	150
#	15187
#	26795
#	41707
#	55901
#	70542
#	82722
#	99328
#	116456
#	128425
#	146474
#	156281
#
# Disc length: 2297 seconds
#
# Revision: 0
# Processed by: cddbd v1.5.2PL0 Copyright (c) Steve Scherf et al.
# Submitted via: CDex 1.70beta2
#
DISCID=8608f70c
DTITLE=Leifen and Friends -  Slik er livet
DYEAR=2010
DGENRE=Country
TTITLE0=Leifen and Friends - Dagen i ditt liv
TTITLE1=Leifen and Friends - Vest i Haukeli
TTITLE2=Leifen and Friends - Helen
TTITLE3=Leifen and Friends - Den gamle grinda
TTITLE4=Leifen and Friends - Født til å vandre
TTITLE5=Leifen and Friends - Arbeidslaus
TTITLE6=Leifen and Friends - I dypet av dine øyne
TTITLE7=Leifen and Friends - En siste hilsen
TTITLE8=Leifen and Friends - Johan Cash
TTITLE9=Leifen and Friends - Til minne om Willy
TTITLE10=Leifen and Friends - Ola e' go
TTITLE11=Leifen and Friends - Rusler på stien
EXTD=YEAR: 2010
EXTT0=
EXTT1=
EXTT2=
EXTT3=
EXTT4=
EXTT5=
EXTT6=
EXTT7=
EXTT8=
EXTT9=
EXTT10=
EXTT11=
PLAYORDER=
